<svg width="488" height="478" viewBox="0 0 488 478" fill="none" xmlns="http://www.w3.org/2000/svg">
<g clip-path="url(#clip0_711_11944)">
<path d="M289.691 324.354L290.23 324.464L290.213 324.626C290.213 324.626 290.189 324.678 290.189 324.736C290.074 325.379 289.865 326.165 289.558 327.091C289.251 328.017 288.799 328.943 288.208 329.863C287.617 330.783 286.841 331.57 285.885 332.224C284.929 332.877 283.73 333.23 282.293 333.294C279.9 333.392 277.212 332.241 274.234 329.834C271.644 332.056 268.574 333.236 265.011 333.387C263.47 333.45 261.871 333.294 260.208 332.912C258.551 332.53 257.033 331.981 255.648 331.257C254.814 330.829 253.986 330.279 253.169 329.591C252.352 328.902 251.651 328.069 251.077 327.074C250.504 326.079 250.185 324.91 250.133 323.562C250.023 321.01 251.054 318.667 253.215 316.514C254.188 315.571 255.208 314.767 256.268 314.113C257.334 313.459 258.302 312.933 259.171 312.539C257.948 310.925 257.01 309.438 256.361 308.084C255.706 306.73 255.347 305.202 255.272 303.501C255.225 302.35 255.341 301.331 255.619 300.44C255.903 299.549 256.257 298.78 256.697 298.132C257.132 297.483 257.578 296.945 258.041 296.517C259.924 294.839 262.015 293.954 264.321 293.856C265.526 293.803 266.691 293.994 267.809 294.428C268.927 294.862 269.848 295.58 270.561 296.587C271.279 297.593 271.673 298.93 271.743 300.591H271.181C271.158 299.133 270.798 297.946 270.109 297.026C269.42 296.106 268.556 295.435 267.508 295.007C266.459 294.579 265.405 294.394 264.339 294.434C263.203 294.48 262.323 294.776 261.685 295.319C261.048 295.863 260.579 296.517 260.277 297.281C259.97 298.045 259.785 298.82 259.721 299.59C259.658 300.365 259.634 301.007 259.658 301.522C259.721 303.079 260.092 304.537 260.764 305.891C261.436 307.245 262.352 308.697 263.516 310.242C264.431 311.376 265.208 312.337 265.833 313.123C266.459 313.916 267.062 314.668 267.635 315.392C268.209 316.109 268.626 316.647 268.887 316.989C271.957 320.813 274.611 323.834 276.835 326.044C278.081 324.412 279.002 322.821 279.605 321.27C280.207 319.72 280.59 318.314 280.758 317.058C280.926 315.802 280.972 314.42 280.891 312.915L281.476 312.892C281.598 316.219 281.18 319.031 280.219 321.322C279.257 323.614 278.278 325.315 277.281 326.42C280.404 329.371 283.04 330.806 285.19 330.713C285.937 330.684 286.568 330.436 287.101 329.967C287.634 329.504 288.069 328.937 288.417 328.277C288.764 327.618 289.031 326.952 289.222 326.287C289.413 325.622 289.558 325.06 289.645 324.592C289.662 324.557 289.668 324.528 289.668 324.511L289.685 324.349L289.691 324.354ZM264.988 332.791C268.336 332.652 271.256 331.535 273.742 329.44C271.882 327.89 270.126 326.16 268.475 324.25C266.824 322.341 265.347 320.524 264.049 318.782C262.717 317.046 261.54 315.548 260.527 314.275C260.167 313.812 259.831 313.366 259.513 312.933C256.407 314.605 254.959 317.955 255.173 322.983C255.26 325.089 255.619 326.796 256.239 328.098C256.859 329.4 257.653 330.401 258.603 331.095C259.553 331.79 260.584 332.258 261.697 332.495C262.809 332.733 263.904 332.825 264.982 332.785L264.988 332.791Z" fill="#A98417" stroke="#A98417" stroke-width="0.5" stroke-miterlimit="10"/>
<path d="M33.4858 476.802C33.0571 475.906 32.8775 474.743 32.8254 473.574C32.2112 459.132 53.6704 426.417 63.7512 411.65C56.5962 412.212 48.7923 412.935 41.2375 413.253C37.3269 413.421 33.4163 413.456 29.7548 413.346C21.5222 413.045 14.541 411.639 14.3788 407.739L14.3672 407.479C14.5526 402.647 25.2706 399.847 33.2193 399.511L34.3896 399.459C48.0797 399.141 59.0121 401.415 68.0616 405.465C76.6881 393.366 144.478 305.116 162.067 304.375C162.849 304.34 163.643 304.566 164.182 304.936C165.254 305.544 165.816 306.562 165.891 308.252C166.053 312.024 163.869 319.026 159.837 331.709C151.911 357.203 138.667 392.828 136.628 400.084L154.414 397.769C155.579 397.59 157.264 397.26 158.829 397.191C161.436 397.081 163.8 397.503 163.892 399.586C163.921 400.234 163.689 400.9 163.336 401.826C163.22 402.219 162.71 402.502 162.189 402.526L161.795 402.543C161.14 402.439 160.601 402.074 160.567 401.293L160.677 400.767C160.897 399.714 161.667 399.552 161.662 399.418L161.528 399.297C160.995 399.06 160.213 399.089 159.304 399.129C157.218 399.216 154.24 399.737 152.288 399.945C147.746 400.529 142.416 401.143 135.938 402.202C128.749 423.495 121.739 445.951 117.121 466.353C116.779 467.539 116.02 468.094 115.366 468.123C114.717 468.152 114.045 467.788 113.755 467.145C101.936 446.917 92.8462 423.443 74.6836 410.655L65.5703 411.303C55.9821 425.265 34.0478 459.045 34.6329 472.839L34.6503 473.227C34.6967 474.268 35.2586 475.287 35.5541 476.056L35.6931 476.311C35.7105 476.698 35.2065 477.115 34.8183 477.26L34.3027 477.41C33.9087 477.427 33.6422 477.179 33.4916 476.791L33.4858 476.802ZM65.1069 409.764C65.5877 408.833 66.7001 407.351 67.3142 406.414C58.537 402.612 47.3497 400.477 34.1868 400.906L33.538 400.934C27.9356 401.172 16.5398 403.347 16.1979 407.536V407.664C16.3138 410.268 23.5441 411.523 29.9518 411.778C33.3526 411.893 36.7418 411.882 40.131 411.737C48.4679 411.384 56.6483 410.389 65.1069 409.77V409.764ZM72.2503 408.942L68.6525 407.137L67.0535 409.423L72.2561 408.942H72.2503ZM132.335 400.668L156.233 330.048C159.941 318.939 162.368 311.538 162.247 308.674C162.218 308.026 162.073 307.638 161.673 307.523L160.885 307.424C148.51 307.945 77.8874 394.101 69.3883 406.061C71.1205 406.9 73.1135 407.727 74.5851 408.578C99.8043 406.211 117.556 403.11 132.335 400.662V400.668ZM131.524 403.046C117.393 405.338 100.801 407.994 77.279 410.424C95.013 422.32 113.552 459.473 115.134 462.927C115.823 457.685 124.873 424.71 131.524 403.052V403.046Z" fill="#A98417" stroke="#A98417" stroke-width="2" stroke-miterlimit="10"/>
<path d="M155.783 442.826C154.439 441.842 153.981 440.297 153.889 438.214C153.587 431.057 158.94 418.837 158.79 415.191L158.767 414.671C158.28 412.478 153.581 412.414 151.252 409.903C150.847 409.527 150.679 408.751 150.638 407.71C150.586 406.408 150.905 404.701 151.502 403.37C151.982 402.439 152.747 402.016 153.663 401.976C154.833 401.924 155.91 402.664 155.974 404.093C155.997 404.614 155.887 405.141 155.656 405.8C155.302 406.726 154.7 407.924 153.842 409.266C156.779 410.834 160.661 410.018 161.866 413.751L162.046 414.914C162.301 420.896 155.401 433.707 155.638 439.302C155.69 440.471 155.98 441.246 156.652 441.738C157.191 442.108 157.845 442.213 158.5 442.184C167.752 441.79 190.202 410.991 197.995 407.01L198.25 406.871C198.383 406.871 198.516 406.992 198.649 407.114C198.649 407.241 198.533 407.507 198.278 407.652C190.527 412.674 168.453 443.069 158.292 443.497C157.376 443.538 156.455 443.312 155.783 442.82V442.826Z" fill="#A98417" stroke="#A98417" stroke-width="2" stroke-miterlimit="10"/>
<path d="M190.366 427.285C189.966 427.042 189.427 426.671 189.398 426.023L189.514 425.63C190.748 420.885 197.967 406.368 200.997 400.9C201.362 400.235 201.739 399.957 202.133 399.939L202.527 400.055C202.793 400.177 203.071 400.553 203.089 400.946L202.973 401.34C200.893 404.684 198.57 411.431 196.432 416.349C200.968 409.51 206.692 402.752 210.991 402.566L212.306 402.775C217.202 404.262 213.094 424.513 219.502 424.762L219.762 424.75C226.147 424.479 236.917 410.598 241.135 405.465C241.384 405.193 241.511 405.06 241.772 405.049L242.038 405.17L242.177 405.425L241.812 406.09C237.097 411.894 226.969 425.491 219.675 425.798L219.287 425.815C210.927 425.647 214.258 405.691 211.727 404.493C211.46 404.372 211.199 404.383 210.939 404.395C206.246 404.592 195.777 422.372 192.185 426.955C192.058 427.094 191.42 427.377 190.899 427.401L190.372 427.291L190.366 427.285Z" fill="#A98417" stroke="#A98417" stroke-width="2" stroke-miterlimit="10"/>
<path d="M252.885 427.383C249.618 427.262 248.477 424.964 248.355 422.1C248.129 416.766 251.315 408.81 252.497 405.893C248.32 412.067 243.083 417.894 240.088 418.021L239.3 417.923C237.973 417.46 237.405 416.308 237.341 414.879C237.121 409.672 243.627 399.881 247.497 398.938C247.886 398.794 248.401 398.637 248.789 398.626C250.875 398.539 252.752 399.76 253.893 402.063L255.857 399.112C255.985 398.979 256.24 398.834 256.501 398.823C256.889 398.805 257.288 398.921 257.561 399.17C257.833 399.419 258.105 399.667 258.123 400.061C258.134 400.321 258.018 400.715 257.769 400.987C256.165 403.139 249.137 415.95 249.415 422.586C249.514 424.93 250.493 426.452 253.106 426.469L253.366 426.457C261.054 426.133 277.375 407.716 283.724 403.533L284.367 403.243C284.628 403.232 284.761 403.359 284.9 403.481L284.912 403.741C284.924 404.001 284.808 404.395 284.431 404.672C276.43 409.967 261.883 427.007 253.413 427.36L252.891 427.383H252.885ZM241.327 416.401C243.123 415.672 246.599 411.483 252.405 403.677C251.541 401.756 250.597 401.016 249.16 401.073C245.122 401.241 239.566 411.905 239.717 415.423C239.751 416.204 240.03 416.58 240.678 416.557L241.322 416.401H241.327Z" fill="#A98417" stroke="#A98417" stroke-width="2" stroke-miterlimit="10"/>
<path d="M296.886 424.478C295.287 423.761 294.569 422.1 294.476 420.017C294.279 415.33 296.99 408.439 298.67 404.979C293.995 411.697 288.034 418.854 283.341 419.051C282.953 419.068 282.559 419.086 282.165 418.97C280.844 418.634 280.27 417.356 280.195 415.666C279.957 410.071 285.513 399.407 287.419 398.284C287.808 398.14 288.062 397.995 288.317 397.984C288.711 397.966 288.972 398.088 289.244 398.337C289.517 398.585 289.789 398.834 289.812 399.355C289.824 399.615 289.58 400.014 289.204 400.425C286.203 403.55 281.892 412.727 282.043 416.239C282.072 416.887 282.223 417.402 282.622 417.518C282.889 417.639 283.277 417.622 283.671 417.604C289.14 417.373 298.195 403.041 300.924 399.667C301.301 399.262 301.932 398.84 302.454 398.823L302.987 399.06C303.126 399.314 303.27 399.569 303.288 399.957C303.299 400.217 303.317 400.605 303.074 401.137C301.509 404.198 295.861 415.782 296.087 421.117C296.144 422.418 296.44 423.315 297.367 423.668C297.633 423.79 297.894 423.778 298.282 423.761C303.885 423.524 319.203 406.061 323.2 401.849L323.71 401.565C323.971 401.554 324.237 401.675 324.249 401.936C324.26 402.196 324.133 402.329 323.884 402.601C319.249 407.23 305.356 424.374 298.323 424.669C297.801 424.692 297.274 424.583 296.88 424.467L296.886 424.478Z" fill="#A98417" stroke="#A98417" stroke-width="2" stroke-miterlimit="10"/>
<path d="M335.433 431.717C332.594 429.362 331.528 425.757 331.366 421.979C331.227 418.727 331.737 415.313 332.397 412.42C326.946 419.3 323.255 424.669 319.478 424.826L319.09 424.843C317.004 424.93 316.013 423.148 315.909 420.677C315.573 412.738 323.383 396.763 330.393 395.947L330.653 395.935C333.521 395.814 335.306 397.955 336.192 400.397C342.768 383.038 358.688 349.125 372.662 336.934C374.928 335.013 376.596 334.29 378.027 334.232C378.809 334.197 379.464 334.301 380.003 334.672C380.669 335.036 380.959 335.673 380.999 336.587C381.092 338.797 379.562 342.772 377.031 347.702C366.776 367.56 340.085 402.971 336.128 408.225C334.883 412.709 333.162 418.386 333.371 423.206C333.498 426.197 334.263 428.905 336.43 430.635C338.724 432.492 341.632 433.285 345.149 433.135C361.046 432.463 388.705 413.699 415.61 395.611C442.022 378.201 467.265 360.837 481.986 360.217C483.29 360.165 484.46 360.113 485.514 360.327C486.042 360.437 487.374 361.033 487.409 361.942L487.287 362.208C487.079 363.388 486.58 363.932 485.537 363.978L484.622 363.886C482.78 363.573 482.322 361.895 480.364 361.982L479.842 362.005C464.936 364.459 440.418 380.359 416.172 396.502C389.017 414.856 361.626 433.875 345.079 434.57C341.302 434.732 338 433.823 335.427 431.717H335.433ZM333.295 408.995C333.869 407.143 334.442 405.297 335.149 403.44C334.535 401.247 332.699 397.937 330.74 398.018L330.352 398.036C324.924 399.309 317.641 415.388 317.896 421.377C317.948 422.679 318.383 423.57 319.292 423.535L319.553 423.524C322.027 423.42 327.119 417.205 333.295 408.995ZM375.831 346.973C378.508 342.298 379.788 338.722 379.719 337.032C379.696 336.512 379.551 336.13 379.145 335.881L378.757 335.898C377.975 335.933 376.706 336.766 375.2 338.138C361.046 352.163 343.816 386.134 337.171 404.927C340.763 400.344 365.652 365.396 375.831 346.979V346.973Z" fill="#A98417" stroke="#A98417" stroke-width="2" stroke-miterlimit="10"/>
<path d="M5.26971 157.308C2.14121 157.441 0.74497 155.283 0.600132 151.771C0.368391 146.303 3.00444 137.589 6.28937 128.846C19.9215 93.2033 42.354 62.0102 68.7377 34.5664C69.5257 31.5345 70.5743 25.4937 70.3541 20.2862C70.2151 17.0344 69.5662 14.0603 67.9267 12.3071C67.7934 12.1798 67.6544 12.0583 67.3936 12.0699C66.4841 12.1104 64.9662 13.3486 63.5583 13.9272L62.3996 14.2397C60.5747 14.3149 59.2132 12.9378 59.1495 11.5086C59.1089 10.6002 59.5898 9.53553 60.986 8.69075C62.3823 7.71868 63.6742 7.40623 64.717 7.35994C66.148 7.30208 67.2141 7.77654 68.1468 8.1295C71.2058 9.43138 72.2834 13.3023 72.4746 17.856C72.6773 22.6701 71.8662 28.1785 70.9972 32.2578C88.8876 14.2918 107.734 3.19391 126.557 0.838941L129.025 0.601709C141.533 0.075169 146.336 8.60396 146.852 20.8359C147.779 42.696 134.836 76.2267 129.604 88.3082C143.851 67.1078 156.492 57.4507 163.786 57.144C165.217 57.0862 166.411 57.4218 167.349 58.0351C169.365 59.3833 170.252 61.825 170.391 65.2041C170.692 72.3616 167.512 83.4479 164.093 95.1938C160.791 106.546 157.483 117.893 157.744 124.009C157.842 126.352 158.427 127.891 159.887 128.348C160.548 128.58 161.208 128.684 161.857 128.655C172.28 128.215 191.329 103.294 196.52 96.4262C196.769 96.1543 197.024 96.0154 197.284 96.0038C197.412 96.0038 197.545 95.9922 197.678 96.1195C197.812 96.2468 197.951 96.3684 197.962 96.6287L197.731 97.2884C191.786 104.839 172.899 130.408 161.173 130.9C160.264 130.941 159.476 130.842 158.682 130.617C156.434 129.928 155.415 127.498 155.276 124.113C154.986 117.343 158.045 106.268 161.353 95.0491C164.777 83.4305 168.323 71.5515 168.044 65.0421C167.934 62.4383 167.21 60.7777 165.75 60.1875C165.217 59.9503 164.696 59.9734 164.174 59.9908C155.183 60.3727 137.142 84.3389 125.086 101.663C124.251 103.52 121.54 116.545 114.767 119.959C114.385 120.236 113.742 120.392 113.093 120.421C112.178 120.462 111.251 120.109 111.198 118.807C111.175 118.286 111.28 117.632 111.639 116.834C114.327 109.422 119.709 100.853 124.39 94.2622C129.037 83.7661 146.157 44.1946 145.177 21.0326C144.731 10.4902 140.508 3.2402 129.825 3.69152L127.357 3.92875C108.279 6.56145 87.8158 19.5456 69.6763 38.1712C64.0566 62.6582 26.3292 154.982 5.66946 157.291L5.2813 157.308H5.26971ZM67.272 40.2311C43.5417 65.4819 19.655 99.3424 7.21054 132.202C4.28481 140.146 2.12383 147.668 2.30922 152.095C2.4135 154.565 3.25936 155.966 5.07853 155.891L5.33923 155.879C24.313 153.906 61.4553 63.1674 67.272 40.2369V40.2311Z" fill="#A98417" stroke="#A98417" stroke-width="2" stroke-miterlimit="10"/>
<path d="M229.698 127.885C227.479 127.851 226.622 126.19 226.524 123.847C226.228 116.822 232.421 102.872 232.219 98.0578C232.195 97.5371 232.051 97.1552 231.906 96.8948C230.509 94.7366 229.212 94.9217 226.379 92.6941C221.501 100.719 211.611 113.912 205.227 114.184H205.099C203.529 114.126 202.173 112.882 201.971 111.192L201.785 109.896C201.6 105.47 203.952 99.3771 204.902 97.1205C202.301 100.361 197.359 106.957 194.491 107.078L194.23 107.09C193.049 106.876 192.487 105.991 192.434 104.689C192.243 100.135 197.857 90.9004 201.872 90.2118L202.394 90.1887C204.085 90.1192 205.574 91.3575 206.42 92.7577C206.912 92.0865 207.144 91.4269 207.654 91.0103C207.776 90.8772 208.036 90.7326 208.297 90.721L208.558 90.7094C208.691 90.8367 208.958 90.9524 208.969 91.2128L208.853 91.6063C208.372 92.5379 202.88 104.637 203.118 110.232C203.187 111.921 203.755 112.946 205.192 113.015H205.325C210.8 112.778 220.568 99.9788 225.452 92.0807C225.035 91.4443 224.745 90.8078 224.716 90.154C224.67 88.9851 225.145 87.9205 225.759 86.9831C226.489 85.7796 227.63 84.9464 228.412 84.9175L228.939 85.0274C229.467 85.1374 229.617 85.6523 229.64 86.1731C229.664 86.6938 229.559 87.3477 229.194 88.0189C228.858 89.3381 228.001 90.6747 227.647 91.4732C230.62 93.8224 231.628 93.0007 233.447 95.9227C233.731 96.4319 233.893 97.2073 233.933 98.1157C234.2 104.359 227.879 118.576 228.123 124.304C228.18 125.733 228.615 126.63 229.791 126.711L230.052 126.699C236.042 126.445 254.865 99.3192 260.375 93.7414C260.624 93.4694 260.879 93.3306 261.14 93.319C261.267 93.319 261.401 93.3074 261.406 93.4405V93.5678C261.418 93.6951 261.302 94.0943 261.053 94.3663C254.773 100.239 237.137 127.579 229.971 127.88L229.71 127.891L229.698 127.885ZM205.696 94.3547C204.977 92.8214 204.555 92.0576 203.378 92.1097L202.99 92.127C199.491 92.6651 193.9 102.548 194.028 105.539L194.045 105.927C194.184 106.182 194.317 106.176 194.578 106.164C196.791 106.072 205.07 95.0317 205.696 94.3547Z" fill="#A98417" stroke="#A98417" stroke-width="2" stroke-miterlimit="10"/>
<path d="M257.076 114.867C255.871 114.137 255.286 112.598 255.205 110.776C254.886 103.231 262.516 89.2165 263.252 88.146C263.75 87.6021 264.394 87.3128 265.042 87.2897C265.952 87.2492 266.757 87.741 266.798 88.6494C266.821 89.1702 266.583 89.8298 265.969 90.6399C264.365 92.7923 260.883 96.8484 258.6 104.637C257.806 107.541 257.013 110.313 257.088 112.13C257.128 113.038 257.407 113.547 257.818 113.923C258.084 114.045 258.478 114.155 258.872 114.137C264.214 113.912 280.859 97.0451 285.111 92.694C285.488 92.2889 285.743 92.1443 286.003 92.1327L286.276 92.3815L286.415 92.6361C286.426 92.8965 286.305 93.1626 285.934 93.5677C281.427 98.0577 265.57 115.029 258.791 115.312C258.142 115.341 257.482 115.237 257.076 114.861V114.867ZM263.403 82.4004C263.009 82.4177 262.603 82.0416 262.586 81.654C262.586 81.5209 262.702 81.2605 263.084 81.1101C264.874 80.2537 268.061 78.4253 269.978 77.4301C270.077 76.6432 270.952 75.8273 272.128 75.7752L272.389 75.7637C273.043 75.8678 273.472 76.6316 273.501 77.4127C273.518 77.8062 273.397 78.0666 273.142 78.2112C270.598 79.7503 266.352 81.2374 263.658 82.3946L263.397 82.4062L263.403 82.4004Z" fill="#A98417" stroke="#A98417" stroke-width="2" stroke-miterlimit="10"/>
<path d="M299.652 109.156C296.332 107.859 294.554 105.852 294.414 102.6C294.368 101.558 294.455 100.511 294.669 99.3307C295.075 96.5765 296.286 94.3083 296.749 92.9833C292.572 99.1571 287.341 105.111 284.345 105.238L283.557 105.14C282.231 104.677 281.663 103.526 281.599 102.096C281.379 96.8889 287.879 87.0988 291.749 86.0225C292.138 85.8779 292.653 85.8547 293.047 85.8374C295.133 85.7506 297.143 86.9657 298.151 89.2743L300.115 86.3234C300.237 86.0572 300.498 86.0457 300.758 86.0341C301.407 86.0052 302.352 86.6185 302.375 87.2666C302.392 87.6542 302.27 87.9204 302.021 88.1923C301.158 89.4016 297.949 93.7123 296.483 99.2439C296.141 100.43 296.054 101.477 296.095 102.392C296.222 105.383 297.989 107.003 300.376 107.946C302.63 108.762 305.254 109.046 308.249 108.918C327.015 108.126 358.161 91.5599 370.31 85.6985C392.823 74.8379 415.082 64.1219 426.808 63.6243C430.458 63.4681 433.1 64.2724 434.369 66.4306C434.508 66.6852 434.513 66.8183 434.525 67.0787C434.554 67.7267 433.795 68.2822 433.14 68.3111L432.752 68.3285C432.092 68.097 431.547 67.5936 431.518 66.9456L431.628 66.419C430.417 65.5569 428.575 65.2444 426.235 65.3428C415.157 65.8115 392.638 76.539 370.895 86.9772C359.893 92.2658 325.769 109.352 307.264 110.133C304.269 110.261 301.645 109.977 299.652 109.15V109.156ZM285.713 103.618C287.375 102.768 290.857 98.7058 296.657 90.773C295.921 88.8462 294.855 88.2444 293.418 88.3023C289.38 88.4701 283.951 99.0009 284.108 102.646C284.143 103.427 284.415 103.809 285.07 103.78L285.718 103.624L285.713 103.618Z" fill="#A98417" stroke="#A98417" stroke-width="2" stroke-miterlimit="10"/>
<path d="M131.498 280.264C116.041 275.832 110.137 262.784 109.483 247.427C108.602 226.609 117.46 201.595 125.143 188.756C139.522 164.685 166.879 135.633 193.854 134.493L196.206 134.522C201.953 134.673 206.408 138.133 208.836 142.981C210.255 145.66 210.91 148.762 211.049 152.147C211.721 168.024 200.864 189.08 197.063 191.718L196.548 191.869C195.377 191.921 193.135 191.359 193.048 189.41C193.008 188.501 193.471 187.043 195.088 185.151C195.337 184.879 195.598 184.867 195.858 184.856C196.119 184.844 196.507 184.827 196.652 185.082C200.151 178.283 207.683 161.931 207.196 150.48C206.912 143.844 203.963 138.885 195.847 138.312C194.671 138.231 193.495 138.283 192.452 138.324C167.823 139.365 141.474 167.463 127.182 190.619C119.488 203.065 110.485 227.824 111.348 248.255C111.962 262.697 117.57 274.975 132.101 279.054C134.476 279.737 136.84 280.027 139.313 279.922C164.463 278.858 196.803 241.126 209.369 223.513C209.74 222.975 210.249 222.692 210.771 222.674L211.165 222.79C211.298 222.917 211.437 223.039 211.454 223.432C211.466 223.693 211.35 224.086 210.974 224.497C198.859 243.522 165.686 280.119 139.499 281.224C136.764 281.34 134.14 281.062 131.492 280.258L131.498 280.264Z" fill="#A98417" stroke="#A98417" stroke-width="2" stroke-miterlimit="10"/>
<path d="M247.496 267.019C247.322 265.984 247.143 264.821 247.079 263.386C246.233 243.475 262.148 200.045 267.142 188.495C255.81 207.486 233.418 242.845 222.735 243.296C218.696 243.464 217.266 240.53 217.109 236.885C216.901 231.938 218.986 225.724 219.809 223.606C215.51 230.046 211.304 235.438 208.309 235.566C206.733 235.369 206.188 234.871 206.107 232.921C205.893 227.847 211.854 217.559 215.858 216.605L217.155 216.419C219.108 216.338 220.452 217.195 221.188 219.249C221.674 218.445 221.755 217.27 222.248 216.599C222.375 216.466 223.007 216.043 223.528 216.026L223.928 216.142C224.061 216.263 224.594 216.506 224.617 217.027C224.629 217.287 224.641 217.548 224.392 217.82C222.903 219.706 218.158 230.856 218.43 237.365C218.552 240.229 219.676 242.133 222.416 242.017C234.009 241.525 256.627 202.249 269.714 181.488L271.835 176.055C250.665 178.514 230.817 181.436 217.381 184.74C216.211 184.792 215.806 184.543 215.719 182.466C215.695 181.945 215.927 181.286 216.443 181.13C218.239 180.401 219.791 180.077 220.707 180.036C221.356 180.007 221.755 180.123 221.773 180.511C232.978 180.036 253.017 175.54 272.796 174.053C276.417 163.991 283.601 151.823 285.89 150.295L286.405 150.145C287.054 150.116 287.732 150.608 287.773 151.649C287.831 153.078 285.386 156.967 284.916 158.159C282.761 162.683 279.847 167.891 276.574 173.764C287.106 172.798 315.338 170.564 335.141 169.725C344.781 169.32 352.486 169.384 355.128 170.182C356.049 170.402 356.466 170.905 356.49 171.559C356.507 171.953 356.264 172.352 356.02 172.751C355.771 173.023 355.516 173.162 355.256 173.174L354.473 173.208C353.825 173.237 352.909 173.272 352.892 172.884L353.008 172.491C352.614 172.375 350.366 171.692 346.965 171.571C342.394 171.501 336.653 171.617 330.268 171.883L320.489 172.167C306.677 172.751 289.905 174.244 275.346 175.772C270.838 186.522 265.224 198.754 261.325 211.432C257.09 225.428 249.402 250.39 249.75 264.849C249.895 268.234 250.422 271.469 251.633 272.331C252.032 272.574 252.183 272.962 252.195 273.222C252.206 273.482 252.085 273.749 251.835 274.021C251.586 274.292 251.204 274.57 250.816 274.588C248.707 274.154 248.07 271.446 247.496 267.037V267.019ZM218.928 221.164C218.61 219.874 218.187 219.11 217.405 219.145C213.378 219.573 208.848 229.803 208.94 231.886C208.952 232.146 208.963 232.407 209.091 232.401L209.352 232.389C211.304 232.308 217.938 222.512 218.928 221.164Z" fill="#A98417" stroke="#A98417" stroke-width="2" stroke-miterlimit="10"/>
<path d="M286.909 242.283C283.641 242.162 282.5 239.865 282.378 237.001C282.152 231.666 285.339 223.71 286.521 220.794C282.344 226.967 277.106 232.794 274.111 232.921L273.323 232.823C271.996 232.36 271.429 231.209 271.365 229.78C271.145 224.572 277.645 214.782 281.527 213.839C281.909 213.694 282.425 213.538 282.819 213.52C284.904 213.434 286.781 214.655 287.923 216.957L289.887 214.006C290.008 213.873 290.263 213.729 290.524 213.717C290.912 213.7 291.312 213.816 291.584 214.064C291.857 214.313 292.129 214.562 292.146 214.955C292.158 215.216 292.042 215.609 291.793 215.881C290.188 218.034 283.16 230.844 283.439 237.481C283.537 239.824 284.516 241.346 287.129 241.363L287.39 241.352C295.078 241.028 311.398 222.61 317.748 218.427L318.385 218.138C318.646 218.126 318.785 218.254 318.918 218.375L318.93 218.635C318.941 218.896 318.825 219.289 318.449 219.567C310.448 224.861 295.9 241.902 287.43 242.254L286.909 242.278V242.283ZM275.351 231.301C277.147 230.572 280.623 226.383 286.428 218.578C285.565 216.657 284.62 215.916 283.184 215.974C279.146 216.142 273.59 226.805 273.74 230.323C273.775 231.105 274.053 231.486 274.702 231.458L275.351 231.301Z" fill="#A98417" stroke="#A98417" stroke-width="2" stroke-miterlimit="10"/>
<path d="M320.706 248.156C317.241 246.478 315.509 242.636 315.271 236.914C315.173 234.57 315.324 231.955 315.723 229.074C317.009 219.37 321.03 206.427 327.577 191.55C333.168 178.67 339.141 168.77 344.592 161.891C350.531 154.207 356.203 149.404 360.241 149.236C361.284 149.19 362.077 149.421 362.877 149.907C363.821 150.648 364.395 151.8 364.453 153.229C365.044 167.15 326.963 211.131 320.943 216.859C319.703 221.476 317.102 230.971 317.409 238.256C317.583 242.422 318.771 245.761 321.436 247.08C322.368 247.56 323.423 247.78 324.466 247.734C335.543 247.265 354.105 223.276 360.096 216.766C360.345 216.495 360.6 216.356 360.861 216.344L361.127 216.466C361.255 216.466 361.266 216.72 361.272 216.853C361.272 216.986 361.289 217.241 361.04 217.513C354.551 224.566 335.983 248.423 324.257 248.92C322.954 248.972 321.766 248.631 320.7 248.156H320.706ZM363.294 153.541C363.236 152.239 362.941 151.342 362.002 150.729C361.602 150.486 361.075 150.376 360.554 150.399C355.861 150.596 347.68 160.849 346.081 163.135C335.931 176.206 326.772 197.192 321.511 214.753C326.378 209.464 363.827 166.033 363.3 153.541H363.294Z" fill="#A98417" stroke="#A98417" stroke-width="2" stroke-miterlimit="10"/>
<path d="M378.803 236.185C378.531 235.936 378.247 235.427 378.224 234.773C378.201 234.252 378.311 233.726 378.548 233.194L379.979 230.005C381.972 224.705 386.654 214.99 386.561 212.78C386.549 212.52 386.543 212.392 386.283 212.398C382.783 212.936 367.286 232.366 359.731 232.684C358.688 232.731 357.761 232.378 357.078 231.626C356.394 230.873 356.093 229.971 356.046 228.802C355.791 222.813 362.274 212.502 362.906 211.958C363.161 211.82 363.283 211.681 363.549 211.669C364.198 211.64 364.742 212.138 364.771 212.792L364.661 213.318C364.534 213.451 363.769 213.879 363.404 214.412C361.707 217.484 357.727 225.209 357.889 228.987C357.923 229.768 358.08 230.416 358.485 230.787C358.891 231.163 359.291 231.273 359.94 231.244C365.803 230.995 382.181 210.882 387.134 210.668H387.262C388.044 210.628 388.722 211.253 388.786 212.682L388.71 213.989C388.108 218.317 383.085 229.091 382.361 230.555C387.216 225.006 394.695 213.607 398.994 213.428L399.382 213.411C400.958 213.602 401.415 215.147 401.502 217.23C401.618 219.961 401.004 223.901 401.132 227.02C401.247 229.751 401.856 231.811 403.843 232.511C404.237 232.627 404.764 232.731 405.286 232.708C411.797 232.43 420.957 217.444 422.643 214.117C422.892 213.845 423.147 213.706 423.28 213.7L423.541 213.688L423.686 213.943C423.686 214.07 423.703 214.331 423.454 214.603C421.021 218.746 412.504 233.448 405.471 233.743C404.822 233.772 404.162 233.668 403.501 233.437C400.187 232.274 399.243 228.403 399.081 224.63C398.953 221.639 399.341 218.491 399.272 216.801C399.231 215.893 399.086 215.505 398.82 215.39H398.692C395.303 215.54 386.851 228.542 382.494 233.547L380.512 236.11C380.263 236.382 380.003 236.393 379.742 236.405C379.354 236.422 378.954 236.307 378.821 236.185H378.803ZM364.07 205.779L363.926 205.397C363.902 204.876 364.389 204.072 365.154 203.649L366.695 203.065L366.956 203.054C367.477 203.03 368.149 203.522 368.305 204.17L368.317 204.431C368.346 205.079 367.975 205.617 367.332 205.779C367.205 205.912 366.822 206.062 366.434 206.207C366.179 206.346 365.785 206.363 365.525 206.375C364.876 206.404 364.209 206.172 364.065 205.785L364.07 205.779Z" fill="#A98417" stroke="#A98417" stroke-width="2" stroke-miterlimit="10"/>
<path d="M434.268 236.058C431.001 235.936 429.859 233.639 429.738 230.775C429.512 225.44 432.698 217.484 433.88 214.568C429.703 220.742 424.466 226.568 421.47 226.696L420.682 226.597C419.356 226.129 418.788 224.983 418.724 223.548C418.504 218.341 425.004 208.55 428.88 207.607C429.268 207.463 429.778 207.306 430.172 207.289C432.258 207.202 434.135 208.423 435.276 210.726L437.24 207.775C437.368 207.642 437.623 207.497 437.883 207.486C438.272 207.468 438.671 207.584 438.944 207.833C439.216 208.082 439.488 208.331 439.506 208.724C439.517 208.984 439.401 209.378 439.152 209.65C437.547 211.802 430.52 224.613 430.798 231.249C430.896 233.593 431.876 235.115 434.488 235.132L434.749 235.12C442.437 234.796 458.757 216.379 465.107 212.201L465.75 211.912C466.011 211.901 466.144 212.028 466.283 212.149L466.295 212.41C466.306 212.67 466.191 213.064 465.814 213.341C457.813 218.636 443.266 235.676 434.795 236.029L434.274 236.052L434.268 236.058ZM422.71 225.076C424.506 224.347 427.982 220.157 433.787 212.352C432.924 210.431 431.98 209.69 430.543 209.748C426.505 209.916 420.955 220.58 421.1 224.098C421.134 224.879 421.412 225.261 422.061 225.232L422.71 225.076Z" fill="#A98417" stroke="#A98417" stroke-width="2" stroke-miterlimit="10"/>
</g>
<defs>
<clipPath id="clip0_711_11944">
<rect width="488" height="478" fill="white"/>
</clipPath>
</defs>
</svg>
