<svg width="103" height="100" viewBox="0 0 103 100" fill="none" xmlns="http://www.w3.org/2000/svg">
<g clip-path="url(#clip0_711_11965)">
<path d="M82.7581 74.7895L82.5938 73.8279C82.5938 73.8279 83.6833 73.5202 84.0097 73.4637C86.4725 73.0315 88.9353 72.5202 91.2698 71.6243C94.7613 70.2849 97.6361 67.9999 99.7792 64.9252C100.34 64.122 100.846 63.2804 101.305 62.4162C101.492 62.0655 101.677 61.7035 101.963 61.4275C102.109 61.2872 102.708 60.8686 102.931 61.0564C103.068 61.1718 102.949 61.3234 102.929 61.4908C102.87 61.9818 102.715 62.4772 102.613 62.9614C102.436 63.8211 102.285 64.6876 102.087 65.5428C101.834 66.6288 101.618 67.9094 100.776 68.7035C99.7184 69.7035 98.2011 70.251 96.9022 70.8664C95.4322 71.5632 93.9239 72.1786 92.3863 72.708C89.3428 73.7533 86.1844 74.4614 82.9855 74.8098C82.8887 74.8211 82.7558 74.7917 82.7558 74.7917L82.7581 74.7895Z" fill="#A98417"/>
<path d="M94.5989 35.3735C91.5959 35.3735 88.7504 35.4685 85.9139 35.3305C84.6555 35.2694 84.0049 35.826 83.4557 36.74C80.3355 41.9391 77.2132 47.1359 74.1313 52.3599C72.1323 55.74 70.2098 59.1653 68.2445 62.5635C67.828 63.2807 67.3643 63.9685 66.833 64.8147C66.5921 64.4346 66.4548 64.2219 66.3197 64.007C64.5548 61.1291 63.7309 57.6563 62.8619 54.4029C61.9615 51.0273 61.2073 47.6133 60.4554 44.2015C59.107 38.0635 57.6753 31.9595 56.2593 25.8418C55.4421 22.3079 54.7758 18.7377 53.9653 15.2015C52.8172 10.188 51.5949 5.19475 50.3612 0.00244141C49.1141 0.638188 48.7921 1.90968 48.3757 3.01828C47.2006 6.1495 46.1358 9.32371 45.0372 12.4821C42.5722 19.5794 40.0891 26.6699 37.6781 33.7852C37.3832 34.6586 37.0185 35.0839 36.1203 35.0613C33.8039 34.9957 31.4852 34.9391 29.1665 34.8893C24.7992 34.7943 20.4319 34.5703 16.0669 34.6699C13.7504 34.7219 11.4002 35.0115 9.22559 36.1495C6.65025 37.4911 4.58143 39.3147 2.83002 41.6246C0.693661 44.4436 -0.233821 47.7151 0.0498264 51.0748C0.452786 55.8101 3.01011 59.6291 6.95416 62.1767C12.2962 65.6314 17.9264 65.6789 23.4552 62.464C27.5794 60.0681 30.3033 56.3531 32.1402 52.0703C33.9299 47.9029 35.3482 43.5726 36.8947 39.2988C36.9983 39.0115 36.8204 38.6178 36.7709 38.2739C36.449 38.4346 36.055 38.5296 35.8209 38.7785C35.5913 39.0205 35.5125 39.4142 35.3842 39.7468C34.2811 42.6201 33.2636 45.5273 32.0615 48.3576C31.0192 50.8169 30.0849 53.4233 28.5384 55.5432C26.5146 58.3192 24.2544 61.0183 20.7178 62.1789C17.6382 63.1925 14.5789 63.7061 11.434 62.7196C6.31933 61.1156 4.13345 56.9504 3.24424 52.1948C2.46983 48.0681 4.06141 44.3531 6.97667 41.2943C9.66232 38.4776 13.1584 37.1291 16.812 36.6495C21.0712 36.0862 25.4138 36.0477 29.7202 36.016C32.5612 35.9979 35.4247 36.2287 38.2387 36.6314C42.1332 37.1902 44.8864 40.8418 44.2425 44.55C43.736 47.4572 43.1552 50.3916 42.2052 53.1744C39.9631 59.7264 37.5543 66.2287 35.0758 72.6947C32.0457 80.5997 27.8248 87.6834 21.3346 93.3441C17.9331 96.3124 14.1984 98.1314 9.82665 98.8463C9.45971 98.9052 9.08377 99.188 8.93069 99.4889C10.574 100.464 18.1943 99.9776 19.4549 98.5432C21.0127 96.7671 22.6538 95.0658 24.1959 93.2785C29.808 86.7672 34.2428 79.5567 37.0613 71.3757C39.5849 64.0613 42.194 56.7785 44.7716 49.4821C44.8639 49.2242 45.0147 48.9866 45.1407 48.74C45.2556 48.7377 45.3681 48.7377 45.4829 48.7355C48.2339 61.5454 51.1153 74.3214 55.1427 87.2151C58.8189 81.0364 62.3082 75.1766 65.8763 69.1857C65.793 69.3282 69.199 71.5432 69.5434 71.749C70.8243 72.5205 72.1908 73.2083 73.6383 73.5929C73.6383 73.5929 73.6653 73.602 73.7126 73.6156C74.048 73.7128 75.4235 74.0975 75.894 74.0975C76.3825 74.0975 76.5761 73.3893 76.6976 73.0228C76.6098 73.1631 75.2479 72.5296 75.0903 72.4798C71.8891 71.4843 69.9126 69.7943 68.1342 66.9165C67.9541 66.6246 67.783 66.3101 67.7785 65.9662C67.774 65.5929 67.9676 65.2513 68.1544 64.93C73.0147 56.6088 77.9673 48.3441 83.0077 40.1337C83.1405 40.1857 83.2756 40.2377 83.4084 40.2898C82.0644 47.792 80.7205 55.2943 79.3788 62.7988C78.0506 70.2151 76.7224 77.6291 75.3942 85.0454C75.1061 86.6518 74.8179 88.2581 74.532 89.8667C72.5645 89.7694 71.8351 90.0205 71.3376 91.1314C74.2056 91.1314 76.9453 91.1721 79.6827 91.1156C81.3531 91.0839 83.0302 90.9753 84.6848 90.7536C85.4839 90.645 86.5668 90.4617 86.1255 89.2717C84.3921 89.5364 82.76 89.878 81.1122 90.0092C79.3743 90.1472 79.0073 89.7513 79.2257 88.0115C79.5724 85.2739 79.9979 82.5454 80.4548 79.8237C81.2 75.3712 82.0014 70.9255 82.7758 66.4753C83.6357 61.5024 84.4709 56.5273 85.3511 51.559C85.9454 48.2038 86.4722 44.8305 87.2556 41.5205C88.1786 37.6359 90.4343 36.5228 93.4508 36.7309C94.8511 36.8282 94.5494 36.3916 94.5989 35.3735ZM63.7557 70.1382C62.092 72.8848 60.5207 75.6857 58.8886 78.4527C58.65 78.8554 58.2943 79.188 57.8081 79.7785C57.2183 78.1201 56.5857 76.6699 56.1917 75.1586C55.2215 71.4481 54.3458 67.7061 53.4566 63.973C52.8262 61.3282 52.295 58.6608 51.6084 56.0341C50.4828 51.7287 49.2356 47.4572 48.0988 43.1563C47.608 41.2966 47.2006 39.4097 46.8674 37.5115C46.5185 35.5228 46.3766 35.4029 44.4159 35.369C42.6059 35.3373 40.796 35.1404 38.7857 35.0002C39.0198 35.016 46.3294 13.0002 48.2339 8.71285C48.7989 10.8576 49.2176 13.0454 49.7376 15.2038C52.5876 27.0477 54.6159 39.1495 57.9927 50.8554C59.3997 55.7332 60.6648 61.3056 63.1929 65.7287C64.1991 67.4798 64.9218 68.2174 63.7557 70.1382Z" fill="#A98417"/>
</g>
<defs>
<clipPath id="clip0_711_11965">
<rect width="103" height="100" fill="white"/>
</clipPath>
</defs>
</svg>
